<?xml version="1.0" encoding="UTF-8"?>
<svg id="Layer_1" data-name="Layer 1" xmlns="http://www.w3.org/2000/svg" xmlns:xlink="http://www.w3.org/1999/xlink" viewBox="0 0 3071.73 2933.13">
  <defs>
    <style>
      .cls-1 {
        fill: url(#linear-gradient-2);
      }

      .cls-2 {
        fill: url(#linear-gradient-51);
      }

      .cls-3 {
        fill: url(#linear-gradient-17);
      }

      .cls-4 {
        fill: url(#linear-gradient-43);
      }

      .cls-5 {
        fill: url(#linear-gradient-15);
      }

      .cls-6 {
        fill: url(#linear-gradient-18);
      }

      .cls-7 {
        fill: url(#linear-gradient-40);
      }

      .cls-8 {
        fill: url(#linear-gradient-52);
      }

      .cls-9 {
        fill: url(#linear-gradient-28);
      }

      .cls-10 {
        fill: url(#linear-gradient-14);
      }

      .cls-11 {
        fill: url(#linear-gradient-36);
      }

      .cls-12 {
        fill: url(#linear-gradient-20);
      }

      .cls-13 {
        fill: url(#linear-gradient-6);
      }

      .cls-14 {
        fill: url(#linear-gradient-35);
      }

      .cls-15 {
        fill: url(#linear-gradient-48);
      }

      .cls-16 {
        fill: url(#linear-gradient-32);
      }

      .cls-17 {
        fill: url(#linear-gradient-11);
      }

      .cls-18 {
        fill: url(#linear-gradient-50);
      }

      .cls-19 {
        fill: url(#linear-gradient-39);
      }

      .cls-20 {
        fill: url(#linear-gradient-10);
      }

      .cls-21 {
        fill: url(#linear-gradient-49);
      }

      .cls-22 {
        fill: url(#linear-gradient-37);
      }

      .cls-23 {
        fill: url(#linear-gradient-16);
      }

      .cls-24 {
        fill: url(#linear-gradient-31);
      }

      .cls-25 {
        fill: url(#linear-gradient-41);
      }

      .cls-26 {
        fill: url(#linear-gradient-21);
      }

      .cls-27 {
        fill: url(#linear-gradient-25);
      }

      .cls-28 {
        fill: url(#linear-gradient-5);
      }

      .cls-29 {
        fill: url(#linear-gradient-45);
      }

      .cls-30 {
        fill: url(#linear-gradient-34);
      }

      .cls-31 {
        fill: url(#linear-gradient-7);
      }

      .cls-32 {
        fill: url(#linear-gradient-24);
      }

      .cls-33 {
        fill: url(#linear-gradient-9);
      }

      .cls-34 {
        fill: url(#linear-gradient-22);
      }

      .cls-35 {
        fill: url(#linear-gradient-42);
      }

      .cls-36 {
        fill: url(#linear-gradient-3);
      }

      .cls-37 {
        fill: url(#linear-gradient);
      }

      .cls-38 {
        fill: url(#linear-gradient-27);
      }

      .cls-39 {
        fill: url(#linear-gradient-33);
      }

      .cls-40 {
        fill: url(#linear-gradient-38);
      }

      .cls-41 {
        fill: url(#linear-gradient-29);
      }

      .cls-42 {
        fill: url(#linear-gradient-30);
      }

      .cls-43 {
        fill: url(#linear-gradient-23);
      }

      .cls-44 {
        fill: url(#linear-gradient-19);
      }

      .cls-45 {
        fill: url(#linear-gradient-4);
      }

      .cls-46 {
        fill: url(#linear-gradient-8);
      }

      .cls-47 {
        fill: url(#linear-gradient-44);
      }

      .cls-48 {
        fill: url(#linear-gradient-47);
      }

      .cls-49 {
        fill: url(#linear-gradient-46);
      }

      .cls-50 {
        fill: #bd922d;
      }

      .cls-51 {
        fill: url(#linear-gradient-12);
      }

      .cls-52 {
        fill: url(#linear-gradient-13);
      }

      .cls-53 {
        fill: url(#linear-gradient-26);
      }
    </style>
    <linearGradient id="linear-gradient" x1="1402.29" y1="1046.76" x2="1661.24" y2="1046.76" gradientUnits="userSpaceOnUse">
      <stop offset="0" stop-color="#b58617"/>
      <stop offset=".5" stop-color="#dbbd80"/>
      <stop offset="1" stop-color="#b68619"/>
    </linearGradient>
    <linearGradient id="linear-gradient-2" x1="1380.03" y1="295.84" x2="1434.49" y2="295.84" xlink:href="#linear-gradient"/>
    <linearGradient id="linear-gradient-3" x1="1234.36" y1="585.34" x2="1286.79" y2="585.34" xlink:href="#linear-gradient"/>
    <linearGradient id="linear-gradient-4" x1="1683.81" y1="462.69" x2="1736.74" y2="462.69" xlink:href="#linear-gradient"/>
    <linearGradient id="linear-gradient-5" x1="1616.49" y1="776.36" x2="1669.86" y2="776.36" xlink:href="#linear-gradient"/>
    <linearGradient id="linear-gradient-6" x1="1636.87" y1="295.55" x2="1689.93" y2="295.55" xlink:href="#linear-gradient"/>
    <linearGradient id="linear-gradient-7" x1="1468.57" y1="679.28" x2="1521.33" y2="679.28" xlink:href="#linear-gradient"/>
    <linearGradient id="linear-gradient-8" x1="1784.02" y1="585.81" x2="1836.19" y2="585.81" xlink:href="#linear-gradient"/>
    <linearGradient id="linear-gradient-9" x1="1549.45" y1="678.61" x2="1601.72" y2="678.61" xlink:href="#linear-gradient"/>
    <linearGradient id="linear-gradient-10" x1="1123.24" y1="338.74" x2="1175.67" y2="338.74" xlink:href="#linear-gradient"/>
    <linearGradient id="linear-gradient-11" x1="1753.61" y1="409.96" x2="1806.7" y2="409.96" xlink:href="#linear-gradient"/>
    <linearGradient id="linear-gradient-12" x1="1401.19" y1="776.77" x2="1454.04" y2="776.77" xlink:href="#linear-gradient"/>
    <linearGradient id="linear-gradient-13" x1="1471.98" y1="533.67" x2="1525.75" y2="533.67" xlink:href="#linear-gradient"/>
    <linearGradient id="linear-gradient-14" x1="1438.07" y1="854.99" x2="1491.05" y2="854.99" xlink:href="#linear-gradient"/>
    <linearGradient id="linear-gradient-15" x1="1334.33" y1="462.79" x2="1387.07" y2="462.79" xlink:href="#linear-gradient"/>
    <linearGradient id="linear-gradient-16" x1="1567.97" y1="449.3" x2="1618.21" y2="449.3" xlink:href="#linear-gradient"/>
    <linearGradient id="linear-gradient-17" x1="1856.01" y1="546.79" x2="1906.57" y2="546.79" xlink:href="#linear-gradient"/>
    <linearGradient id="linear-gradient-18" x1="1433.23" y1="600.7" x2="1482.96" y2="600.7" xlink:href="#linear-gradient"/>
    <linearGradient id="linear-gradient-19" x1="1586.04" y1="600.54" x2="1637.69" y2="600.54" xlink:href="#linear-gradient"/>
    <linearGradient id="linear-gradient-20" x1="1664.69" y1="707.14" x2="1715.69" y2="707.14" xlink:href="#linear-gradient"/>
    <linearGradient id="linear-gradient-21" x1="1580.66" y1="855.5" x2="1631.66" y2="855.5" xlink:href="#linear-gradient"/>
    <linearGradient id="linear-gradient-22" x1="1696.17" y1="230.38" x2="1748.87" y2="230.38" xlink:href="#linear-gradient"/>
    <linearGradient id="linear-gradient-23" x1="1895.28" y1="338.52" x2="1946.26" y2="338.52" xlink:href="#linear-gradient"/>
    <linearGradient id="linear-gradient-24" x1="1418.74" y1="372.71" x2="1470.49" y2="372.71" xlink:href="#linear-gradient"/>
    <linearGradient id="linear-gradient-25" x1="1825.61" y1="371.2" x2="1875.33" y2="371.2" xlink:href="#linear-gradient"/>
    <linearGradient id="linear-gradient-26" x1="1265.93" y1="410.04" x2="1316.95" y2="410.04" xlink:href="#linear-gradient"/>
    <linearGradient id="linear-gradient-27" x1="1452.27" y1="449.4" x2="1503.12" y2="449.4" xlink:href="#linear-gradient"/>
    <linearGradient id="linear-gradient-28" x1="1322.99" y1="230.41" x2="1373.13" y2="230.41" xlink:href="#linear-gradient"/>
    <linearGradient id="linear-gradient-29" x1="1196.16" y1="371.32" x2="1245.59" y2="371.32" xlink:href="#linear-gradient"/>
    <linearGradient id="linear-gradient-30" x1="1510.89" y1="758.68" x2="1561.17" y2="758.68" xlink:href="#linear-gradient"/>
    <linearGradient id="linear-gradient-31" x1="1385.35" y1="531.85" x2="1436.76" y2="531.85" xlink:href="#linear-gradient"/>
    <linearGradient id="linear-gradient-32" x1="1546.34" y1="533.98" x2="1595.9" y2="533.98" xlink:href="#linear-gradient"/>
    <linearGradient id="linear-gradient-33" x1="1601.56" y1="372.55" x2="1651.77" y2="372.55" xlink:href="#linear-gradient"/>
    <linearGradient id="linear-gradient-34" x1="1164.57" y1="546.8" x2="1214.52" y2="546.8" xlink:href="#linear-gradient"/>
    <linearGradient id="linear-gradient-35" x1="1094.97" y1="513.99" x2="1144.74" y2="513.99" xlink:href="#linear-gradient"/>
    <linearGradient id="linear-gradient-36" x1="1304.68" y1="637.65" x2="1355.66" y2="637.65" xlink:href="#linear-gradient"/>
    <linearGradient id="linear-gradient-37" x1="1926.93" y1="514.01" x2="1977.19" y2="514.01" xlink:href="#linear-gradient"/>
    <linearGradient id="linear-gradient-38" x1="1715.56" y1="637.74" x2="1765.66" y2="637.74" xlink:href="#linear-gradient"/>
    <linearGradient id="linear-gradient-39" x1="1634.89" y1="531.93" x2="1684.82" y2="531.93" xlink:href="#linear-gradient"/>
    <linearGradient id="linear-gradient-40" x1="1355.63" y1="706.79" x2="1404.4" y2="706.79" xlink:href="#linear-gradient"/>
    <linearGradient id="linear-gradient-41" x1="1511.01" y1="838.75" x2="1560.1" y2="838.75" xlink:href="#linear-gradient"/>
    <linearGradient id="linear-gradient-42" x1="1066.58" y1="318.56" x2="1106.94" y2="318.56" xlink:href="#linear-gradient"/>
    <linearGradient id="linear-gradient-43" x1="1270.85" y1="184.86" x2="1311.39" y2="184.86" xlink:href="#linear-gradient"/>
    <linearGradient id="linear-gradient-44" x1="1036.95" y1="495.51" x2="1075.02" y2="495.51" xlink:href="#linear-gradient"/>
    <linearGradient id="linear-gradient-45" x1="1996.09" y1="495.46" x2="2032.34" y2="495.46" xlink:href="#linear-gradient"/>
    <linearGradient id="linear-gradient-46" x1="1965.43" y1="318.84" x2="2003.05" y2="318.84" xlink:href="#linear-gradient"/>
    <linearGradient id="linear-gradient-47" x1="1760.74" y1="184.9" x2="1797.39" y2="184.9" xlink:href="#linear-gradient"/>
    <linearGradient id="linear-gradient-48" x1="581.11" y1="2198.34" x2="773.36" y2="2198.34" xlink:href="#linear-gradient"/>
    <linearGradient id="linear-gradient-49" x1="855.01" y1="2198.86" x2="889.63" y2="2198.86" xlink:href="#linear-gradient"/>
    <linearGradient id="linear-gradient-50" x1="2449.28" y1="2054.93" x2="2490.62" y2="2054.93" xlink:href="#linear-gradient"/>
    <linearGradient id="linear-gradient-51" x1="967.15" y1="2300.92" x2="2490.11" y2="2300.92" xlink:href="#linear-gradient"/>
    <linearGradient id="linear-gradient-52" x1="721.24" y1="1052.2" x2="2349.87" y2="1052.2" xlink:href="#linear-gradient"/>
  </defs>
  <g>
    <path class="cls-37" d="m1412.74,1027.67c-.48-83.24,50.18-135.76,117.6-134.46,64.59,1.25,112.69,53.57,111.44,122.3-1.43,78.24-49.34,130.24-102.42,179.23-8.77,8.1-16.85,6.87-24.45-.2-52.77-49.08-100.24-101.29-102.16-166.88Z"/>
    <path class="cls-1" d="m1434.49,292.59c.02,15.76-8.28,25.69-22.05,28.75-17.83,3.96-29.11-6.72-31.99-22.95-2.63-14.82,7.4-25.12,21.31-28.1,17.77-3.81,27.43,7.07,32.73,22.31Z"/>
    <path class="cls-36" d="m1263.51,558.7c15.75,4.32,26.09,13.98,22.61,31.61-2.77,14.04-13.12,23.45-27.9,21.41-16.97-2.35-26.41-14.18-23.25-31.5,2.57-14.09,12.74-21.9,28.54-21.52Z"/>
    <path class="cls-45" d="m1713.88,435.98c13.62,2.86,23.43,12.66,22.84,26.42-.69,16.17-11.57,29.03-29.05,26.74-16.32-2.14-26.42-14.39-23.29-32.01,2.62-14.78,13.71-21.16,29.5-21.15Z"/>
    <path class="cls-28" d="m1646.18,750.13c13.71,3.15,24.65,10.94,23.62,25.97-1.13,16.46-11.18,28.71-29.15,26.29-16.6-2.23-27.19-13.78-23.38-31.38,2.95-13.63,13.04-22.06,28.91-20.88Z"/>
    <path class="cls-13" d="m1636.87,298.23c.45-17.31,9.54-27.99,26.62-28.87,15-.77,24.47,9.26,26.19,23.46,2.2,18.27-10.11,28.13-26.11,28.91-13.67.67-23.8-8.54-26.7-23.51Z"/>
    <path class="cls-31" d="m1495.2,705.84c-18.6-.59-27.13-11.57-26.61-28.84.47-15.71,12.84-24.41,26.06-24.31,16.42.13,28.47,11.3,26.46,29.12-1.53,13.49-9.25,24.67-25.91,24.03Z"/>
    <path class="cls-46" d="m1806.38,612.56c-15.28-4.84-24.92-15.21-21.76-32.48,2.66-14.5,13.49-22.22,28.29-20.86,14.93,1.38,23.95,11.42,23.24,25.94-.81,16.77-10.93,26.9-29.78,27.4Z"/>
    <path class="cls-33" d="m1575.25,651.47c16.48,4.63,27.95,13.73,26.31,31.23-1.36,14.46-11.24,23.12-26.35,23.06-15.42-.06-24.34-9.54-25.63-23.89-1.61-17.99,10.59-26.1,25.67-30.4Z"/>
    <path class="cls-20" d="m1149.6,312.06c14.56,1.34,25.33,8.29,26.03,23.57.79,17.25-9.83,30.01-26.15,29.78-15.66-.22-28.18-11.7-25.99-29.57,1.68-13.63,10.07-23.86,26.11-23.78Z"/>
    <path class="cls-17" d="m1806.7,410.26c-3.1,15.51-10.38,27.45-29.14,25.65-15-1.43-24.31-11.11-23.94-25.54.44-16.96,11.01-27.72,28.76-26.43,14.69,1.06,22.88,10.79,24.32,26.32Z"/>
    <path class="cls-51" d="m1427.07,803.08c-15.18-3.95-27.63-11.23-25.68-29.8,1.57-14.96,11.15-23.46,26.2-22.78,17.55.8,27.51,11.69,26.36,28.8-.99,14.68-12.09,21.95-26.88,23.78Z"/>
    <path class="cls-52" d="m1525.75,534.02c-1.52,15.19-9.19,24.61-24.44,25.59-18.18,1.17-28.7-10.03-29.31-26.29-.53-14.06,9.81-24.46,24.64-25.57,18.02-1.35,26.61,9.72,29.12,26.27Z"/>
    <path class="cls-10" d="m1459.27,828.2c19.73.85,30.77,9.88,31.73,26.92.86,15.18-10.38,24.38-23.92,26.31-18.3,2.61-27.39-10.11-28.9-26.3-1.44-15.43,10.77-21.94,21.09-26.93Z"/>
    <path class="cls-5" d="m1387.07,461.45c-2,15.72-9.59,26.78-24.05,28.05-18.02,1.59-27.42-11.14-28.6-27.28-1.06-14.61,8.16-24.51,23.22-26.07,19.02-1.98,25.6,10.98,29.43,25.3Z"/>
    <path class="cls-23" d="m1618.17,447.35c.71,15.58-7.55,25.91-21.85,27.25-17.26,1.61-28.44-8.65-28.35-26.44.08-15.04,9.42-23.98,24.77-24.31,15.53-.33,23.62,8.52,25.43,23.51Z"/>
    <path class="cls-3" d="m1906.52,550.77c-2.35,13.7-10.81,21.41-26.33,21.24-16.26-.18-24.62-10.21-24.16-24.36.54-16.49,10.12-28.54,28.74-25.67,14.46,2.23,22.52,12,21.74,28.79Z"/>
    <path class="cls-6" d="m1482.91,599.23c.69,15.54-7.23,25.07-22.02,26.72-14.53,1.63-25.52-4.89-27.36-20.76-2.05-17.72,6.33-29.43,24.16-29.97,14.53-.44,23.71,8.74,25.23,24.01Z"/>
    <path class="cls-44" d="m1637.22,610.3c-1.13,7.71-9.4,16.88-24.41,16.07-16.94-.92-28.31-11.73-26.6-28.4,1.71-16.72,15.3-25.68,31.85-22.74,13.65,2.43,21.72,12.67,19.17,35.08Z"/>
    <path class="cls-12" d="m1688.32,682.12c15.32-.94,25.5,6.92,27.13,21.19,2,17.49-8.84,28.69-25.81,28.91-14.39.19-24.67-10.53-24.94-24.74-.27-13.85,7.99-24.09,23.62-25.37Z"/>
    <path class="cls-26" d="m1604.74,880.99c-13.52-3.55-24.46-9.85-24.07-25.91.38-15.42,9.55-24.49,24.26-25.03,18.08-.66,27.82,10.87,26.63,27.95-1.02,14.6-12.03,22.08-26.82,22.98Z"/>
    <path class="cls-34" d="m1748.87,230.72c-2.71,13.46-8.6,24.56-24,25.14-16.85.63-29.14-7.7-28.68-25.13.43-16.52,12.02-27.15,28.77-25.74,13.71,1.15,22.34,11.12,23.91,25.73Z"/>
    <path class="cls-43" d="m1917.92,312.33c19.08-.72,26.47,9.2,28.09,23.16,2.08,17.96-9.02,28.25-25.26,29.2-14.28.83-23.39-9.72-25.17-23.87-2.29-18.31,8.88-26.17,22.33-28.49Z"/>
    <path class="cls-32" d="m1470.49,372.54c-2.6,16.07-10.89,27.13-28.39,26.15-15-.84-23.65-12.22-23.35-25.61.36-15.88,9.67-27.87,27.93-26.27,14.74,1.29,21.59,11.61,23.81,25.73Z"/>
    <path class="cls-27" d="m1849.46,396.62c-16.25-2.28-24.48-12.01-23.82-26.36.8-17.6,12-26.95,29.69-23.91,14.64,2.51,21.78,12.53,19.62,28.02-2.16,15.45-11.85,21.76-25.49,22.25Z"/>
    <path class="cls-53" d="m1316.95,409.62c-1.79,13.45-8.5,23.99-23.71,25.14-18.26,1.39-27.59-9.04-27.3-26.49.26-15.37,10.2-23.17,25.24-23.07,15.21.1,23.4,8.98,25.78,24.42Z"/>
    <path class="cls-38" d="m1480.27,423.87c13.62,2.27,23.81,10.21,22.77,25.62-1.17,17.32-11.98,27.58-29.88,25.07-15.36-2.15-21.79-14.09-20.79-28.59,1.08-15.79,11.77-22.08,27.9-22.09Z"/>
    <path class="cls-9" d="m1373.13,228.35c-.7,14.08-5.42,25.05-21.39,27.13-15.21,1.98-25.92-4.87-28.28-19.41-2.78-17.15,6.7-29.43,23.68-30.95,14.41-1.29,23.53,8.41,25.98,23.22Z"/>
    <path class="cls-41" d="m1245.59,368.02c.15,16.39-7.63,27.26-21.84,28.69-17.39,1.76-27.63-8.7-27.59-26.64.03-15.28,8.31-24.29,23.84-24.33,15.2-.04,23.34,8.92,25.59,22.28Z"/>
    <path class="cls-42" d="m1561.17,756.47c-1.28,15.34-7.52,25.97-22.89,27.55-15.11,1.56-25.37-5.96-27.1-21.09-1.99-17.39,6.82-29.19,24.49-29.79,14.86-.51,22.67,10.12,25.51,23.33Z"/>
    <path class="cls-24" d="m1436.76,528.98c-.18,17.08-8.29,28.47-25.6,28.79-14.42.26-24.21-9.61-25.61-23.67-1.74-17.46,8.54-27.6,25.7-28.14,14.72-.47,23.3,8.3,25.51,23.03Z"/>
    <path class="cls-16" d="m1546.34,537.35c1.4-17.61,9.22-27.78,23.63-28.44,17.58-.8,27.09,10.06,25.81,27.53-1.07,14.53-9.87,23.42-25.24,22.59-15.06-.82-22-10.59-24.2-21.68Z"/>
    <path class="cls-39" d="m1651.75,374.25c-2.21,14.56-9.88,25.17-25.2,24.02-17.09-1.28-27.27-12.14-24.55-30.08,2.23-14.74,12.4-23.4,27.57-21.08,14.34,2.19,22.73,11.58,22.18,27.14Z"/>
    <path class="cls-30" d="m1214.52,546.1c-.95,14.61-8.01,24.16-23,25.18-14.4.98-25.54-5.45-26.81-20.66-1.42-17.01,7.61-28.09,25.19-28.38,14.96-.25,22.14,9.9,24.62,23.87Z"/>
    <path class="cls-14" d="m1144.74,511.89c-.67,15.04-8.18,24.84-23.33,26.26-15.32,1.43-25.28-6.35-26.35-22.08-1.03-15.25,6.57-25.22,22.31-26.3,15.24-1.05,24.23,7.18,27.37,22.12Z"/>
    <path class="cls-11" d="m1355.66,638.75c-2.72,14.68-9.99,23.41-25.61,23.57-15.48.16-25.33-8.06-25.36-22.38-.04-16.27,9.3-28.37,27.51-26.8,14.62,1.26,21.89,11.62,23.47,25.62Z"/>
    <path class="cls-22" d="m1977.19,513.23c-3.18,18.03-12.19,26.27-27.49,24.86-15.14-1.39-24.07-10.98-22.62-26.21,1.44-15.03,11.62-23,26.91-22.04,15.94,1.01,21.67,11.84,23.2,23.38Z"/>
    <path class="cls-40" d="m1765.66,639.31c-2.5,14.54-10.18,23.03-25.44,22.79-14.95-.24-24.49-7.86-24.66-22.84-.2-17.54,10.57-27.18,27.63-25.72,14.21,1.22,21.99,11.19,22.46,25.77Z"/>
    <path class="cls-19" d="m1659.05,557.46c-14.68-2.88-24.27-10.17-24.16-25.58.11-14.87,8.22-25.31,22.94-25.48,16.89-.19,27.95,10.12,26.92,27.7-.87,14.99-12.46,21.1-25.71,23.35Z"/>
    <path class="cls-7" d="m1378.14,682.06c15.76-.47,24.87,7.41,26.13,22.71,1.27,15.32-6.65,25.43-22.03,26.67-15.19,1.22-25.22-7.46-26.49-22.44-1.27-15.04,7.52-24.09,22.39-26.94Z"/>
    <path class="cls-25" d="m1536.11,814.39c14.78,1.79,25.2,8.34,23.88,24.73-1.19,14.83-9.59,24.38-25.27,23.97-15.82-.41-23.36-10.69-23.7-25.47-.38-16.39,10.19-22.51,25.09-23.23Z"/>
    <path class="cls-35" d="m1086.92,299.6c13.56,2.9,21.79,9.52,19.69,22.33-2.12,12.95-12.86,16.92-24.36,15.21-9.46-1.4-16.62-8.03-15.56-18.51,1.25-12.37,9.36-18.5,20.23-19.03Z"/>
    <path class="cls-4" d="m1289.44,165.18c12.49.24,20.71,5.73,21.86,19.23.95,11.21-5.95,17.59-15.39,19.52-12.29,2.52-22.29-2.9-24.63-15.79-2.37-13.05,5.27-20.39,18.17-22.96Z"/>
    <path class="cls-47" d="m1057.31,513.39c-11.02.32-17.93-5.83-19.93-15.74-2.15-10.65,3.99-18.58,14.38-19.76,11.78-1.33,23.53,1.82,23.26,16.93-.19,10.13-7.36,16.53-17.7,18.57Z"/>
    <path class="cls-29" d="m2012.4,512.8c-9.71-1.57-16.22-8.1-16.31-18.16-.14-14.72,10.61-17.41,22.59-16.41,11.76.97,14.99,8.81,13.19,19.17-1.78,10.23-7.65,16.25-19.47,15.4Z"/>
    <path class="cls-49" d="m2003.05,318.81c-1.94,9.83-6.51,17.23-17.66,17.71-10.54.45-18.52-4.55-19.76-14.89-1.62-13.47,6.82-20.19,19.68-20.49,11.45-.26,15.11,8.49,17.75,17.67Z"/>
    <path class="cls-48" d="m1778.24,202.44c-9.96-1.52-18.5-6.52-17.4-17.15,1.25-12.01,9.41-19.94,22.66-17.71,10.83,1.82,14.54,10.74,13.8,20.42-.84,10.95-8.23,15.51-19.06,14.45Z"/>
  </g>
  <g>
    <path class="cls-15" d="m674.65,2365.52c-30.67,0-54.61-10.16-71.83-30.49-14.47-17.57-21.71-40.31-21.71-68.22,0-63.73,32.04-106.63,96.12-128.68,64.08,22.05,96.12,64.94,96.12,128.68,0,32.04-9.48,57.02-28.42,74.93-16.54,15.85-38.24,23.77-65.12,23.77h-5.17Zm-1.55-32.04h8.27c17.91,0,32.04-5.94,42.38-17.83,10.34-11.89,15.5-28.17,15.5-48.84,0-45.82-20.67-78.2-62.01-97.15-41.34,18.95-62.01,51.34-62.01,97.15,0,20.33,5.17,36.52,15.5,48.58,10.34,12.06,24.46,18.09,42.38,18.09Zm-28.94-259.94c-13.79,0-20.67-7.23-20.67-21.7s6.88-20.67,20.67-20.67,20.67,6.9,20.67,20.67c0,14.47-6.9,21.7-20.67,21.7Zm58.91,0c-13.78,0-20.67-7.23-20.67-21.7s6.89-20.67,20.67-20.67,20.67,6.9,20.67,20.67c0,14.47-6.89,21.7-20.67,21.7Z"/>
    <path class="cls-21" d="m855.01,2365.52v-315.24l34.63-18.09v333.32h-34.63Z"/>
    <path class="cls-18" d="m2470.47,2033.74c-14.14,0-21.19,6.9-21.19,20.68,0,14.47,7.05,21.71,21.19,21.71s20.15-7.24,20.15-21.71-6.72-20.68-20.15-20.68Z"/>
    <path class="cls-2" d="m2455.49,2162.42v112.15c0,39.28-18.95,58.91-56.85,58.91h-1243.89v-106.46c0-25.84-6.9-46.51-20.68-62.01-15.85-17.91-38.76-26.87-68.74-26.87s-52.02,9.13-69.25,27.38c-19.3,20.34-28.94,49.1-28.94,86.31,0,31.7,7.75,57.02,23.26,75.97,18.94,22.4,47.54,34.45,85.78,36.18l43.93,1.54c0,11.02-3.62,22.14-10.85,33.34-7.24,11.19-16.2,19.55-26.87,25.06-10.69,6.21-23.08,9.31-37.21,9.31-17.57,0-35.33-4.83-53.23-14.47v30.48c18.95,9.64,38.42,14.47,58.4,14.47,9.64,0,18.6-1.21,26.87-3.62,22.75-5.51,41.27-16.98,55.56-34.37,14.29-17.41,21.62-37.47,21.97-60.21h1248.02c25.84,0,46.51-7.4,62.01-22.22,16.88-16.2,25.32-38.76,25.32-67.7v-131.26l-34.62,18.09Zm-1335.37,171.06c-13.43,0-27.73-.51-42.9-1.54-50.63-2.41-75.97-29.27-75.97-80.62,0-25.84,5.61-45.9,16.81-60.21,11.19-14.29,26.95-21.46,47.28-21.46,36.51,0,54.78,20.34,54.78,60.98v102.84Z"/>
  </g>
  <g>
    <path class="cls-50" d="m723.35,2635.19c-2.9,0-4.35,1.45-4.35,4.35s1.45,4.48,4.35,4.48,4.21-1.49,4.21-4.48-1.41-4.35-4.21-4.35Zm13.71,0c-2.9,0-4.35,1.45-4.35,4.35s1.45,4.48,4.35,4.48,4.21-1.49,4.21-4.48-1.39-4.35-4.21-4.35Z"/>
    <path class="cls-50" d="m762.19,2720.7v.04h1.37c-.47,0-.92-.01-1.37-.04Z"/>
    <path class="cls-50" d="m2067.8,2663.31v51.6c0,9.78-2.48,17.56-7.46,23.36-4.7,5.52-11.09,8.28-19.15,8.28-5.16,0-10.09-1.17-14.8-3.53v-5.7c4.72,2.44,9.42,3.67,14.13,3.67,7.42,0,13-2.9,16.71-8.69,2.8-4.53,4.21-10.24,4.21-17.11v-48.48l6.37-3.39Z"/>
    <path class="cls-50" d="m1986.45,2740.03c0,2.98-1.39,4.48-4.21,4.48s-4.35-1.5-4.35-4.48,1.45-4.35,4.35-4.35,4.21,1.45,4.21,4.35Z"/>
    <path class="cls-50" d="m1997.86,2666.7v30.96c0,11.59-5.62,17.38-16.83,17.38H764.51c-11.23,0-16.85-5.79-16.85-17.38v-41.42l-6.39,3.39v8.95c-4.25-4.43-9.82-6.65-16.69-6.65s-12.04,2.26-16.29,6.79c-4.8,5.16-7.2,12.04-7.2,20.64,0,7.52,1.85,13.73,5.56,18.61,4.35,5.79,10.32,8.69,17.94,8.69s13.66-2.86,18.46-8.55c3.3,8.03,9.67,12.24,19.15,12.58.44.03.9.04,1.37.04h1219.78v-.04c5.97-.23,10.82-2.12,14.53-5.66,4.26-4.17,6.39-9.92,6.39-17.25v-34.49l-6.39,3.39Zm-1273.28,44.26c-5.16,0-9.31-1.96-12.43-5.9-3.12-3.93-4.69-9.16-4.69-15.69s1.59-11.64,4.76-15.69c3.17-4.01,7.29-6.04,12.36-6.04,6.69,0,12.27,2.91,16.69,8.69v21.47c0,.99.1,2.4.28,4.21-4.62,5.97-10.28,8.95-16.97,8.95Z"/>
    <path class="cls-50" d="m2000.18,2740.03c0,2.98-1.41,4.48-4.22,4.48s-4.33-1.5-4.33-4.48,1.43-4.35,4.33-4.35,4.22,1.45,4.22,4.35Z"/>
    <path class="cls-50" d="m2176.17,2635.19c-2.9,0-4.35,1.45-4.35,4.35s1.45,4.48,4.35,4.48,4.21-1.49,4.21-4.48-1.39-4.35-4.21-4.35Zm-13.71,0c-2.9,0-4.35,1.45-4.35,4.35s1.45,4.48,4.35,4.48,4.21-1.49,4.21-4.48-1.41-4.35-4.21-4.35Zm-34.63,85.53v.03h1.37c-.47,0-.92-.01-1.37-.03Z"/>
    <path class="cls-50" d="m2302.88,2720.74h1.35v-.04c-.44.03-.9.04-1.35.04Z"/>
    <path class="cls-50" d="m2318.76,2636.54v61.12c0,11.59-5.6,17.38-16.83,17.38h-35.58c-2.9,0-5.66-.68-8.28-2.04l-.69-.28c10.69-7.15,20.28-16.24,28.79-27.29v-3.67c-9.59-13.22-20.56-19.83-32.86-19.83s-23.22,6.57-32.73,19.69v3.81c4.07,5.89,9.09,11.67,15.08,17.38,4.53,4.35,8.82,7.74,12.9,10.18-2.54,1.27-5.3,1.95-8.29,2.04h-60.29c4.07-2.9,7.33-6.68,9.78-11.34,2.44-4.66,3.66-9.44,3.66-14.33,0-7.6-1.81-13.85-5.42-18.74-4.44-5.79-10.69-8.69-18.75-8.69-7.06,0-12.76,2.26-17.11,6.79-4.7,4.98-7.06,11.87-7.06,20.64,0,4.9,1.23,9.67,3.67,14.33s5.7,8.44,9.78,11.34h-28.39c-11.22,0-16.83-5.79-16.83-17.38v-64.51l-6.39,3.39v61.26c0,7.05,2,12.65,5.97,16.76,3.73,3.85,8.69,5.89,14.94,6.15.44.01.9.03,1.37.03h32.45c2.62,0,5.16-.32,7.6-.95,2.44.63,4.98.95,7.6.95h63.42c4.62,0,8.97-1.31,13.04-3.93,4.07,2.62,8.42,3.93,13.04,3.93h36.53c.46,0,.91-.01,1.35-.04,5.99-.23,10.83-2.12,14.53-5.66,4.26-4.17,6.39-9.92,6.39-17.25v-64.65l-6.39,3.39Zm-148.29,77.14l-1.23.41-1.21-.41c-4.98-1.71-9.06-4.86-12.22-9.44-3.17-4.57-4.76-9.52-4.76-14.87,0-6.61,1.66-11.88,4.97-15.81,3.3-3.95,7.71-5.92,13.23-5.92s9.93,1.97,13.25,5.92c3.3,3.93,4.95,9.2,4.95,15.81,0,5.35-1.59,10.31-4.75,14.87-3.17,4.58-7.24,7.73-12.22,9.44Zm55.68-30.28c8.14-10.5,17.05-15.76,26.75-15.76,10.5,0,19.73,5.26,27.7,15.76-2.28,3.81-6,8.24-11.2,13.31-5.22,5.08-10.58,9.46-16.1,13.18-12.86-8.97-21.91-17.8-27.15-26.49Z"/>
    <path class="cls-50" d="m2364.26,2720.75v-84.2l6.38-3.39v87.59h-6.38Z"/>
  </g>
  <path class="cls-8" d="m1046.01,926.18c61.53-39.76,119.28-79.66,179.5-118.73,1.01,4.37,2.04,7.2,2.25,10.09.33,4.58.11,9.21.11,13.81,0,270.85-.02,541.71.03,812.56,0,24.6-2.16,21.19,21.85,28.84,2.17.69,4.46,1.03,6.73,1.31.83.1,1.73-.45,4.67-1.31.13-38.82.04-78.27.06-117.72.01-39.61,0-79.23,0-118.84v-117.46c0-39.54,0-79.09,0-118.81,7.62-1.84,11.36,3.14,15.6,5.98,60.12,40.19,120.36,80.21,180,121.11,16.23,11.13,31.03,24.55,45.53,37.95,8.72,8.06,15.62,18.09,23.28,27.27,3.19,3.82,6.24,7.76,10.39,12.94,3.91-4.81,7.18-8.46,10.03-12.41,19.39-26.83,43.36-48.83,70.73-67.24,59.24-39.85,118.51-79.66,177.79-119.44,4.42-2.97,9.07-5.59,16.26-10,.74,22.59.31,42.19.39,61.77.08,19.35.02,38.69.02,58.04v236.31c0,19.35-.01,38.69,0,58.04.01,19.68.05,39.37.08,58.94,10.76,2.59,18.12-1.79,25.45-5.06,2.26-1.01,4.12-4.9,4.51-7.7.76-5.43.43-11.02.43-16.55.01-270.39.01-540.79.01-811.18v-19.22c7.77-2.02,11.5,2.96,15.77,5.79,50.27,33.37,100.43,66.92,150.65,100.38,4.53,3.02,9.24,5.75,13.96,8.68,5.84-4.96,3.96-10.85,3.97-15.96.15-58.04.41-116.08.01-174.12-.47-67.64,20.92-127.51,62.65-180.33,17.54-22.2,38.18-41.22,61.65-57.01,61.53-41.4,123.15-82.66,184.77-123.92,3.36-2.25,7-4.07,11.66-6.75,1.12,4.11,2.33,6.97,2.59,9.92.4,4.57.18,9.2.18,13.81,0,297.11-.1,594.22.29,891.33.02,15.67-4.21,28.12-13.23,40.68-79.5,110.69-176.68,202.34-293.01,273.45-114.77,70.16-239.08,113.9-372.12,133.01-63.1,9.06-126.66,11.87-190.17,8.23-222.98-12.75-420.69-89.82-591.1-235.15-59.88-51.06-112.44-108.82-158.88-172.29-6.81-9.31-10.13-18.69-10.12-30.47.27-304.48.21-608.96.21-913.44v-16.32c7.85-2.13,11.7,2.7,15.98,5.55,44.45,29.65,88.77,59.49,133.14,89.27,14.92,10.01,29.93,19.88,44.77,30.01,69.78,47.67,112.52,112.8,125.83,196.54,2.3,14.5,3.47,29.31,3.57,43.99.4,57.57.14,115.15.21,172.73,0,5.29.57,10.58,1.07,19.12Zm1277.69-513.65c-4.75,2.47-8.01,3.81-10.9,5.73-50.2,33.44-100.63,66.52-150.32,100.7-15.05,10.35-29.12,22.69-41.72,35.95-46.82,49.29-69.84,108.93-70.99,176.43-1.14,67.2-.2,134.44-.4,201.66-.02,7.65,2.73,12.82,8.73,17.53,8.67,6.8,17.07,14.11,24.68,22.07,54.33,56.84,82.25,124.47,82.27,203.33.01,58.01,0,116.03,0,174.04,0,35.45-.06,70.91.08,106.36.02,4.64-1.56,9.93,3.3,14.36,2.52-1.9,4.83-3.35,6.81-5.18,52.95-48.87,100.93-102.12,142.25-161.28,5.34-7.64,7.11-15.42,7.1-24.49-.13-284.08-.1-568.16-.13-852.25,0-4.41-.45-8.83-.78-14.99ZM901.57,1477.89c1.1-.56,2.21-1.11,3.31-1.67v-16.4c0-87.98-.09-175.95.08-263.93.03-16.09.41-32.25,1.91-48.26,7.32-78.06,41.39-142.5,101.02-193.07,9.55-8.1,12.95-16.19,12.87-28.18-.43-63.56.27-127.13-.32-190.69-.85-91.6-38.41-164.86-113.46-217.51-49-34.38-99.45-66.7-149.31-99.86-2.81-1.87-6.11-3.01-10.38-5.07-.32,5.81-.75,9.88-.75,13.96-.03,288.34,0,576.68-.17,865.02,0,9.74,2.59,17.67,8.33,25.49,35.54,48.39,74.83,93.46,118.4,134.76,9.23,8.75,18.96,16.95,28.46,25.41Zm300.85-626.62c-5.35,3.35-9.65,5.88-13.78,8.66-42.79,28.76-85.28,57.97-128.51,86.05-11.47,7.45-15.59,15.55-15.52,29.11.54,105.42.3,210.84.3,316.25,0,91.61.19,183.22-.23,274.82-.05,11.62,3.73,18.4,13.92,23.96,42.88,23.41,86.57,45.02,132.27,62.4,3.68,1.4,7.64,2.04,13.11,3.45.56-5.98,1.27-10.38,1.35-14.79,2.92-158.17,1.07-776.24-2.91-789.93Zm666.11,1.06c-3.32,13.17-3.29,787.6-.3,799.17,1.27.1,2.7.54,3.95.23,2.67-.67,5.27-1.62,7.84-2.63,46.36-18.28,90.93-40.19,134.17-64.97,9.4-5.39,12.16-11.87,12.14-22.2-.25-196.2-.26-392.41.01-588.61.02-11.28-3.26-18.68-12.9-25.03-46.16-30.39-91.9-61.41-137.81-92.18-1.87-1.25-3.98-2.13-7.1-3.78Zm-584.2,387.51c-.44,7.9-.92,12.4-.92,16.9-.04,136.33-.05,272.67,0,409,0,16.87.14,16.93,16.93,21.2,41.12,10.45,82.8,17.9,124.92,22.74,17.35,2,34.86,2.86,52.32,3.52,10.36.39,11.9-1.61,12.59-11.88.25-3.67.12-7.37.12-11.05,0-41.91.56-83.84-.14-125.74-.74-44.24,9.07-85.89,28.14-125.49,3.65-7.58,3.29-13.41-1.35-20.36-19.16-28.71-42.58-53.14-71.28-72.36-48.98-32.81-98.06-65.47-147.13-98.14-3.69-2.46-7.65-4.52-14.18-8.35Zm502.72.99c-5.56,3.04-8.45,4.36-11.07,6.1-49.44,32.9-98.95,65.69-148.2,98.87-27.35,18.43-50.36,41.37-69.53,68.36-7,9.85-7.7,18.11-2.34,29.11,17.79,36.53,26.56,75.25,26.14,116.1-.45,43.73-.1,87.47-.09,131.2,0,3.68-.14,7.38.13,11.04.7,9.59,2.2,11.43,11.67,11.23,9.63-.21,19.24-1.49,28.86-2.31,51.04-4.35,101.2-13.69,150.67-26.79,14.92-3.95,15.05-4.15,15.05-19.81.05-135.81.04-271.62-.02-407.42,0-4.4-.69-8.81-1.27-15.69Zm-768.84,323.73c3.45-14.63,3.08-573.67-.51-586.16-3.88,3.34-7.39,5.94-10.4,9.02-49.11,50.25-75.34,110.54-77.48,180.75-1.08,35.4-.27,70.86-.28,106.29-.02,70.4.26,140.8-.26,211.2-.09,11.88,3.36,19.82,13.15,26.51,22.02,15.05,43.46,30.95,65.21,46.4,2.93,2.08,6.28,3.59,10.58,6Zm1034.03-5.38c3.68-2.05,7.37-3.64,10.54-5.95,22.7-16.5,45.18-33.31,67.99-49.67,7.11-5.09,9.65-11.23,9.62-19.88-.28-106.78.9-213.58-.75-320.34-1.09-70.44-30.2-129.97-80.41-179.18-2.01-1.97-4.86-3.08-7.69-4.81-3.31,15.47-2.72,568.44.69,579.82Zm-516.25-103.39c-3.12,6.68-5.49,10.92-7.15,15.42-10.9,29.57-16.99,60-16.82,91.67.23,45.04.03,90.09.02,135.13,0,2.76.12,5.51.2,8.27.17,5.42,2.84,8.82,8.35,8.94,10.1.22,20.22.18,30.32,0,5.36-.09,8.55-2.95,8.81-8.52.15-3.21.25-6.43.25-9.64.01-45.5-.04-91.01.01-136.51.04-32.11-6.2-63-17.88-92.83-1.27-3.25-3.18-6.25-6.12-11.93Z"/>
</svg>